<svg aria-hidden="true" focusable="false" data-prefix="fal" data-icon="align-center" role="img" xmlns="http://www.w3.org/2000/svg" viewBox="0 0 448 512" class="svg-inline--fa fa-align-center fa-w-14 fa-3x">
<path fill="currentColor" d="M344 48H104a8 8 0 0 0-8 8v16a8 8 0 0 0 8 8h240a8 8 0 0 0 8-8V56a8 8 0 0 0-8-8zm96 384H8a8 8 0 0 0-8 8v16a8 8 0 0 0 8 8h432a8 8 0 0 0 8-8v-16a8 8 0 0 0-8-8zm-96-128H104a8 8 0 0 0-8 8v16a8 8 0 0 0 8 8h240a8 8 0 0 0 8-8v-16a8 8 0 0 0-8-8zm96-128H8a8 8 0 0 0-8 8v16a8 8 0 0 0 8 8h432a8 8 0 0 0 8-8v-16a8 8 0 0 0-8-8z" class="">
</path>
</svg>