<svg aria-hidden="true" focusable="false" data-prefix="fal" data-icon="align-right" role="img" xmlns="http://www.w3.org/2000/svg" viewBox="0 0 448 512" class="svg-inline--fa fa-align-right fa-w-14 fa-3x">
<path fill="currentColor" d="M440 48H168a8 8 0 0 0-8 8v16a8 8 0 0 0 8 8h272a8 8 0 0 0 8-8V56a8 8 0 0 0-8-8zm0 384H8a8 8 0 0 0-8 8v16a8 8 0 0 0 8 8h432a8 8 0 0 0 8-8v-16a8 8 0 0 0-8-8zm0-128H168a8 8 0 0 0-8 8v16a8 8 0 0 0 8 8h272a8 8 0 0 0 8-8v-16a8 8 0 0 0-8-8zm0-128H8a8 8 0 0 0-8 8v16a8 8 0 0 0 8 8h432a8 8 0 0 0 8-8v-16a8 8 0 0 0-8-8z" class="">
</path>
</svg>