<svg  aria-hidden="true" focusable="false" data-prefix="fal" data-icon="argentina" role="img" xmlns="http://www.w3.org/2000/svg" viewBox="0 0 576 512" class="svg-inline--ax ax-argentina ax-w-18 ax-3x">
<path class="" d="M185.98,28.45l25.23,12.43l2.92-8.04l13.16,1.46l14.63,9.14l15.72,16.09l13.53,1.83l21.57,8.41l7.68,12.43
	l-7.31,12.07l-2.56,7.31l11.7,1.46l13.16,5.12l6.95-2.93l12.43-4.39l8.41-10.6l1.46-9.51l5.49-1.46l4.75,6.58l1.46,10.24l-3.66,7.68
	l-11.33,3.29c0,0-24.86,25.96-27.06,27.42c-2.19,1.46-14.99,11.33-14.99,11.33l-4.39,29.98c0,0-4.39,14.63-4.39,15.72
	c0,1.1-0.73,9.51-0.73,9.51l15.72,12.8l-0.73,5.48l9.14,8.04l-0.73,10.24l-15.36,17.92l-51.92,6.95l-8.04-1.83l-0.73,5.12l2.92,6.22
	l-2.56,17.18c0,0-19.01,4.02-20.84,4.02c-1.83,0-13.89-6.58-13.89-6.58l-2.92,2.19l2.56,16.82l4.75,3.66l-5.85,6.95l9.14,1.83
	l-10.24,8.04l-5.48,18.28l-13.89,2.92l-13.53,13.89l8.04,11.7l16.82,4.02l-2.56,9.14l-16.82,10.24l-7.31,9.87l-5.12,8.04l-9.14,1.83
	l-6.22,8.78l0.73,11.34l4.02,6.95l-46.07-2.92l-3.29-16.82l-12.43-1.83l13.16-29.62l-1.83-9.51l10.6-20.84l2.56-11.33l-6.22-6.22
	l9.14-6.22l-7.31-2.56l-2.56-22.67c0,0,4.02-9.51,4.02-10.6c0-1.1-3.66-8.78-3.66-8.78l12.07-35.47l-0.37-25.96l8.04-6.22l1.1-10.6
	l8.04-17.55l-8.78-33.64l9.87-29.62l10.24-24.5c0,0,9.14-12.8,9.14-13.89c0-1.1-1.1-29.25-1.1-29.25l17.18-8.04l1.83-16.09
	L185.98,28.45 M151.98,451.49c11.02,14.29,26.06,23.99,44.97,29.25h-42.78L151.98,451.49 M199.8,0.42L163,7.28l-12.8,13.89
	l-7.36,16.11l-1.91,0.9l-17.98,29.52c0.26,6.75,0.54,13.98,0.75,19.51c-0.97,1.39-2,2.87-3,4.26l-3.4,6.11l-10.24,24.5l-0.81,2.17
	l-9.87,29.62l-0.59,17.77l5.96,22.86l-3.4,7.42l-2.68,9.8l-0.16,1.51l-9.15,18.97l0.29,20.56l-10.33,30.36l0.94,16.08
	c-0.17,0.41-0.34,0.81-0.5,1.19l-2.27,15.68l2.56,22.67l4.67,5.86l-1.42,6.27l-8.83,17.36l-2.8,19.81l-9.24,20.79l11.2,20.35
	l-0.88,0.17l3.29,16.82l28.69,25.19l20.49,1.3l0.78,10.43c0.57,22.31,5.57,27.32,37.26,28.91c14.26,0,22.42,0,36.68,0
	c50.05-3.14,36.18-49.89,8.38-61.35c-10.78-3-19.22-7.86-25.69-14.79l7.11-4.87l4.52-7.11l3.01-4.07l11.6-7.06l13.84-18.27
	l2.56-9.14L210.93,366l13.77-12.66l2.64-8.8l2.46-1.93l-0.83-3.49l1.22-4.06l-2.36-0.71l-0.2-0.83l3.48-4.13l-0.74-6.86
	c3.43-0.67,7.85-1.58,13.65-2.8l24.44-25.97l0.42-2.83l33.14-4.44l19.58-10.64l15.36-17.92l7.44-18.11l0.73-10.24L334.6,203.9
	l-5.61-4.94l-3.71-9.36l-1.47-1.2c0.35-1.2,0.72-2.42,1.07-3.61l0.99-4.46l2.55-17.4c1.61-1.21,2.86-2.15,3.45-2.57
	c2.72-1.82,5.07-3.58,26.27-25.61l3.3-0.96l19.5-16.57l3.66-7.68l2.72-17.86l-1.46-10.24l-5.6-13.87l-4.75-6.58l-33.39-11.9
	l-5.49,1.46l-11.26,12.55l-6.02-9.74l-15.24-12.7l-21.57-8.41l-7.16-1.85L272.49,30l-8.21-8.4l-5.79-4.66L243.86,7.8l-13.11-4.56
	l-13.16-1.46l-6.65,4.13L199.8,0.42z"/>
</svg>
