<svg aria-hidden="true" focusable="false" data-prefix="fal" data-icon="box-tissue" role="img" xmlns="http://www.w3.org/2000/svg" viewBox="0 0 512 512" class="svg-inline--fa fa-box-tissue fa-w-16 fa-3x"><path fill="currentColor" d="M464,224H405.33L448,96H338.6A70.2,70.2,0,0,1,272,48,70.19,70.19,0,0,0,205.4,0H64l49.78,224H48A48,48,0,0,0,0,272V464a48,48,0,0,0,48,48H464a48,48,0,0,0,48-48V272A48,48,0,0,0,464,224ZM103.89,32H205.4a38.15,38.15,0,0,1,36.24,26.12,102.07,102.07,0,0,0,97,69.88h65L350.27,288H160.78ZM480,464a16,16,0,0,1-16,16H48a16,16,0,0,1-16-16V416H480Zm0-80H32V272a16,16,0,0,1,16-16h72.89L128,288H112a16,16,0,0,0,0,32H400a16,16,0,0,0,0-32H384l10.67-32H464a16,16,0,0,1,16,16Z" class=""></path></svg>