<?xml version="1.0" encoding="utf-8"?>
<!-- Generator: Adobe Illustrator 24.1.2, SVG Export Plug-In . SVG Version: 6.00 Build 0)  -->
<svg version="1.1" id="Capa_1" focusable="false" xmlns="http://www.w3.org/2000/svg" xmlns:xlink="http://www.w3.org/1999/xlink"
	 x="0px" y="0px" viewBox="0 0 581 512" style="enable-background:new 0 0 581 512;" xml:space="preserve">
<style type="text/css">
	.st0{fill-rule:evenodd;clip-rule:evenodd;fill:#000001;}
</style>
<path class="st0" d="M27.1,251.5l108.4-40.6l0.1-125.7c0-18.9,13-33.1,27.3-38.5L278.9,3.1c7.4-2.8,14.7-2.8,22.1,0l116.1,43.5
	c15.5,5.8,26.4,19.2,26.4,38.2l-0.1,125.6l109.7,41.1c16.4,6.2,27.9,21.7,27.9,36.5l0,131.2c0,12.2-6.5,22.7-17.4,28.2l-121.9,60.5
	c-8.1,4-20.7,4-28.8,0L291,447.3c-0.3,0.2-0.6,0.3-0.9,0.5l-122,59.9c-8,4-21.7,4.2-29,1.3L17.4,447.8C6.4,442.3,0,431.9,0,419.6
	l0.1-131.7C0.1,273.9,12.5,256.9,27.1,251.5L27.1,251.5z M542.1,284.5v-0.2L427,241.2l-108.2,39.7l-8.9,3.3v0.2L426,334.8
	L542.1,284.5L542.1,284.5z M549.5,422.5l0-109.3l-107.8,46.8l0,116.4L549.5,422.5L549.5,422.5z M412.8,476.4V359.9l-107.8-46.8
	v109.3L412.8,476.4L412.8,476.4z M304.1,155.5v98.9l53.1-17.9l54.7-20.5V108.8L304.1,155.5L304.1,155.5z M173.8,79.6L290,129.9
	l116.1-50.3v-0.2L290,35.9L173.8,79.5V79.6L173.8,79.6z M274.8,254.4v-98.9l-107.9-46.8V216l54.8,20.5L274.8,254.4L274.8,254.4z
	 M270.4,284.5l0-0.2l-8.9-3.3l-108.2-39.8L38.1,284.3v0.2l116.1,50.3L270.4,284.5L270.4,284.5z M276,423V313.7l-107.8,46.8v116.4
	L276,423L276,423z M31.5,423l107.8,53.9V360.4L31.5,313.7V423z"/>
</svg>
