<svg aria-hidden="true" focusable="false" data-prefix="fal" data-icon="database-backup" role="img" xmlns="http://www.w3.org/2000/svg" viewBox="0 0 448 512" class="svg-inline--fal fal-database-backup fal-w-18 fal-3x">
  <path fill="currentColor" d="M 224 512 C 100.3 512 0 476.2 0 432 L 0 80 C 0 35.82 100.3 0 224 0 C 347.7 0 448 35.82 448 80 L 448 342.405 C 446.404 336.542 444.424 330.837 442.089 325.319 L 441.617 272.369 C 438.161 248.182 423.169 255.627 416 260.756 L 416 219.5 C 398.8 228.4 377.9 235.8 354.8 241.5 C 350.303 242.603 345.697 243.65 340.99 244.639 C 333.272 243.273 325.328 242.561 317.218 242.561 C 302.109 242.561 287.577 245.034 274.005 249.596 L 274.005 249.453 L 203.294 249.453 C 196.498 249.106 194.512 250.858 192.818 255.672 C 152.437 254.385 125.279 249.369 93.22 241.5 C 70.11 235.8 49.18 228.4 32 219.5 L 32 310.1 C 46.47 320.7 69.9 330.8 100.9 338.4 C 125.432 344.427 153.484 348.744 184.448 350.747 C 182.639 359.578 181.689 368.723 181.689 378.09 C 181.689 379.606 181.714 381.115 181.763 382.619 C 149.54 380.486 119.506 375.952 93.22 369.5 C 70.11 363.8 49.18 356.4 32 347.5 L 32 431.6 C 32.29 432.3 33.55 434.7 38.25 438.7 C 45.59 444.9 58.1 451.9 76.37 458.4 C 105.841 468.975 145.879 476.638 191.655 479.129 C 191.609 479.599 191.56 480.08 191.509 480.573 C 189.545 499.56 209.186 508.071 224.9 494.322 C 228.869 490.85 231.919 487.837 234.26 485.272 C 248.466 496.283 264.92 504.533 282.816 509.215 C 264.073 511.031 244.353 512 224 512 Z M 448 432 C 448 444.437 440.059 456.208 425.891 466.704 C 424.998 464.957 424.2 463.383 423.561 462.119 C 434.725 448.009 443.141 431.625 448 413.775 Z M 416 80.45 C 415.7 79.69 414.4 77.27 409.8 73.31 C 402.4 67.11 389.9 60.09 371.6 53.57 C 335.4 40.62 283.2 32 224 32 C 164.8 32 112.6 40.62 76.37 53.57 C 58.1 60.09 45.59 67.11 38.25 73.31 C 33.55 77.27 32.29 79.69 32 80.45 L 32 182.1 C 46.47 192.7 69.9 202.8 100.9 210.4 C 135.5 218.9 177.1 224 224 224 C 270 224 312.5 218.9 347.1 210.4 C 378.1 202.8 401.5 192.7 416 182.1 Z M 31.96 431.4 C 31.94 431.3 31.93 431.3 31.92 431.3 Z M 31.96 80.56 C 31.93 80.65 31.92 80.7 31.92 80.7 Z M 416.1 80.7 C 416.1 80.7 416.1 80.65 416 80.56 Z M 317.532 282.032 C 311.114 282.032 304.809 282.674 298.22 283.889 L 298.22 256.204 C 304.866 255.255 311.171 254.767 317.532 254.767 C 349.342 254.767 378.31 266.866 400.122 286.712 L 420.06 266.786 C 425.797 261.061 435.567 265.116 435.567 273.211 L 435.567 333.08 C 435.567 338.078 431.477 342.168 426.479 342.168 L 366.609 342.168 C 358.543 342.168 354.454 332.341 360.191 326.661 L 380.81 306.042 C 363.996 291.103 341.844 282.032 317.532 282.032 Z M 222.128 377.442 C 222.128 383.747 222.741 389.939 223.906 395.903 L 196.238 395.903 C 195.329 389.882 194.863 383.747 194.863 377.442 C 194.863 346.144 206.61 317.516 225.939 295.875 L 205.968 275.875 C 200.242 270.149 204.292 260.362 211.881 260.362 L 272.261 260.362 C 277.26 260.362 281.35 264.429 281.35 269.45 L 281.35 329.274 C 281.35 337.397 271.523 341.43 265.843 335.749 L 245.28 315.187 C 230.853 331.887 222.128 353.642 222.128 377.442 Z M 274.931 430.097 L 255.278 449.751 C 271.977 464.179 293.732 472.869 317.532 472.869 C 323.553 472.869 328.893 472.358 335.084 471.279 L 335.084 498.885 C 329.347 499.737 323.497 500.134 317.532 500.134 C 285.723 500.134 257.606 488.433 235.965 469.064 L 215.056 489.967 C 209.33 495.704 199.538 491.614 199.538 483.548 L 199.538 423.679 C 199.538 418.68 203.61 414.591 208.626 414.591 L 268.456 414.591 C 276.067 414.591 280.611 424.36 274.931 430.097 Z M 369.279 421.009 L 388.989 440.719 C 403.928 423.906 412.96 401.753 412.96 377.442 C 412.96 371.364 412.392 365.343 411.312 359.55 L 438.975 359.55 C 439.827 365.4 440.225 371.364 440.225 377.442 C 440.225 409.251 428.126 438.22 408.302 460.032 L 429.148 480.878 C 434.885 486.615 430.795 496.385 422.73 496.385 L 362.86 496.385 C 357.862 496.385 353.772 492.296 353.772 487.297 L 353.772 427.428 C 353.772 419.362 363.542 415.272 369.279 421.009 Z" class=""/>
</svg>
