<svg aria-hidden="true" focusable="false" data-prefix="fal" data-icon="flute" role="img" xmlns="http://www.w3.org/2000/svg" viewBox="0 0 640 512" class="svg-inline--fa fa-flute fa-w-20 fa-3x"><path fill="currentColor" d="M512 280a24 24 0 1 0-24-24 24 24 0 0 0 24 24zm-192 0a24 24 0 1 0-24-24 24 24 0 0 0 24 24zm96 0a24 24 0 1 0-24-24 24 24 0 0 0 24 24zm192-120H32a32 32 0 0 0-32 32v128a32 32 0 0 0 32 32h576a32 32 0 0 0 32-32V192a32 32 0 0 0-32-32zM112 320H32V192h80zm496 0H144V192h464z" class=""></path></svg>