<svg aria-hidden="true" focusable="false" data-prefix="fal" data-icon="futbol-alt" role="img" xmlns="http://www.w3.org/2000/svg" viewBox="0 0 496 512" class="svg-inline--fa fa-futbol-alt fa-w-16 fa-3x">
<path fill="currentColor" d="M248,10.2c137,0,248,110.6,248,246.9S385,504,248,504S0,393.5,0,257.1S111,10.2,248,10.2L248,10.2z
	 M418.1,180.6c-2.4,1.7-5.7,1.2-7.4-1.3c-24.4-34.7-59.7-52.2-105.7-52.4c-2.2,0-4.3-1.5-4.9-3.7l-3.9-13.3
	c-0.9-3.1,1.2-6.3,4.5-6.6c30.7-2.6,52-13.2,62.9-32.8C330,49.9,290.4,38,248,38c-47.6,0-91.6,15-127.6,40.6c1.7,2.3,4,4.4,6.9,6.2
	c3.2,1.9,3.7,6.3,1.1,9c-4.1,4.3-8.5,8.8-12.5,12.9c-1.7,1.7-4.4,2.2-6.6,1.2c-6.3-2.8-13.4-3.3-20.5-2.1
	c-37.7,39.3-60.9,92.6-60.9,151.3c0,33.2,7.4,64.6,20.7,92.8c8.9,4.9,19,7.7,30.7,7.6c1.8-0.1,3.4,0.9,4.2,2.5
	c2.7,5.3,5.4,10.5,8.1,15.8c1.2,2.4,0.2,5.3-2.2,6.4c-6.3,2.9-11,6.4-14.2,10.6c40.3,50.9,102.8,83.5,172.9,83.5
	c23.5,0,46.1-3.7,67.3-10.5c-2.6-1.1-4.5-3.6-4.7-6.6c-1-24.2-21-41.4-48.1-55.8c-3.5-1.8-5-6.2-3.3-9.8c1.6-3.3,3.1-6.7,4.7-10
	c1.5-3.4,5.3-5.1,8.9-4.1c44.9,13.2,83,3.4,116.5-22.7c3.4-2.6,8.3-2,10.8,1.5c0.8,1.1,1.6,2.2,2.3,3.2c2.2,3,1.9,7.1-0.7,9.7
	c-25.4,26.1-45.3,53.7-58.5,83.4c58.8-28.1,103.1-81.5,118.7-146c-10.8,9.1-23.2,21.6-36.2,35.3c-2.6,2.7-7,2.6-9.4-0.4
	c-0.9-1.1-1.7-2.2-2.6-3.3c-1.7-2-1.8-5-0.4-7.2c25.2-39.6,30.7-80,15.6-121.1c-0.8-2.2-0.3-4.6,1.2-6.3c0.8-0.9,1.6-1.8,2.4-2.7
	c2.9-3.2,8.1-2.6,10.1,1.2c8.3,15.4,16.4,31.6,25.3,43.8c-2.6-62.9-31.9-119-76.8-157.3c6.7,26.7,17.1,53.1,33.9,78.7
	c1.5,2.3,1,5.4-1.2,7L418.1,180.6L418.1,180.6z M276.4,123.2c-1.2-3.4-2.3-6.8-3.5-10.2c-1.3-4-5.3-6.4-9.5-5.8
	c-43.9,6.4-82.9,5.7-112.6-8.8c-3.6-1.7-7.8-0.9-10.4,2.1c-2.8,3.2-5.5,6.4-8.3,9.5c-2.9,3.3-2.8,8.2,0.1,11.5
	c22.4,24.4,31.4,55.7,29.3,92.6c-0.3,4.5,3,8.5,7.5,9.1c3.1,0.4,6.1,0.8,9.2,1.2c4,0.5,7.9-1.9,9.3-5.7c13.3-39,38.2-69.4,83.2-84.5
	C275.4,132.6,277.9,127.8,276.4,123.2L276.4,123.2z M239.5,365.9c-38.9-29.8-56.3-65.4-55.9-105.9c0-4.4-3.4-8.1-7.8-8.4
	c-3.7-0.2-7.3-0.4-11-0.6c-4.2-0.2-8,2.8-8.6,6.9c-6.7,42-26.4,70.3-54.6,89.7c-3.5,2.4-4.6,7-2.6,10.8c2,3.7,4.1,7.5,6.1,11.2
	c1.9,3.4,5.8,5.1,9.5,4c40.1-11.8,76.6-2.8,112.1,13.5c3.8,1.7,8.3,0.3,10.5-3.2c1.4-2.3,2.9-4.7,4.3-7
	C243.7,373.1,242.9,368.5,239.5,365.9z" class="">
</path>
</svg>
