<svg aria-hidden="true" focusable="false" data-prefix="fal" data-icon="line-columns" role="img" xmlns="http://www.w3.org/2000/svg" viewBox="0 0 512 512" class="svg-inline--fa fa-line-columns fa-w-16 fa-3x">
<path fill="currentColor" d="M504 304H296a8 8 0 0 0-8 8v16a8 8 0 0 0 8 8h208a8 8 0 0 0 8-8v-16a8 8 0 0 0-8-8zm0 128H296a8 8 0 0 0-8 8v16a8 8 0 0 0 8 8h208a8 8 0 0 0 8-8v-16a8 8 0 0 0-8-8zm0-256H296a8 8 0 0 0-8 8v16a8 8 0 0 0 8 8h208a8 8 0 0 0 8-8v-16a8 8 0 0 0-8-8zm0-128H296a8 8 0 0 0-8 8v16a8 8 0 0 0 8 8h208a8 8 0 0 0 8-8V56a8 8 0 0 0-8-8zM216 432H8a8 8 0 0 0-8 8v16a8 8 0 0 0 8 8h208a8 8 0 0 0 8-8v-16a8 8 0 0 0-8-8zm0-128H8a8 8 0 0 0-8 8v16a8 8 0 0 0 8 8h208a8 8 0 0 0 8-8v-16a8 8 0 0 0-8-8zm0-256H8a8 8 0 0 0-8 8v16a8 8 0 0 0 8 8h208a8 8 0 0 0 8-8V56a8 8 0 0 0-8-8zm0 128H8a8 8 0 0 0-8 8v16a8 8 0 0 0 8 8h208a8 8 0 0 0 8-8v-16a8 8 0 0 0-8-8z" class="">
</path>
</svg>