<svg aria-hidden="true" focusable="false" data-prefix="fal" data-icon="user-key" role="img" xmlns="http://www.w3.org/2000/svg" viewBox="0 0 640 512" class="svg-inline--fa fa-user-key fa-w-20 fa-3x">
<path class="" d="M488.7,77.7c-83.4,0-151,67.6-151,151c0,12,1.4,23.8,4.2,35.4L215,391c-6.2,6.3-9.4,13.9-9.4,22.7v66
	c0,17.7,14.4,32.1,32.1,32.1h79.2c17.7,0,32.1-14.4,32.1-32.1V459h20.8c17.7,0,32.1-14.4,32.1-32.1v-20.7h7.5
	c8.8,0,16.4-3.1,22.7-9.4l21.2-21.2c11.5,2.8,23.4,4.2,35.4,4.1c83.4,0,151-67.6,151-151S572.1,77.7,488.7,77.7z M488.6,347.6
	c-15.7,0-30.6-3-44.3-8.5l-35,35h-39.6v52.8h-52.8v52.8h-79.2v-66l140.5-140.6c-5.5-13.7-8.5-28.6-8.5-44.3
	c0-65.7,53.3-118.9,118.9-118.9c65.7,0,118.9,53.1,118.9,118.8S554.3,347.6,488.6,347.6z M528.2,146.3c-23.7,0-42.9,19.2-42.9,42.9
	s19.2,42.9,42.9,42.9c23.7,0,42.9-19.2,42.9-42.9C571.1,165.5,551.9,146.3,528.2,146.3z M528.2,207.1c-9.9,0-17.9-8-17.9-17.9
	c0-9.9,8.1-17.9,17.9-17.9c9.9,0,17.9,8,17.9,17.9C546.1,199.1,538.1,207.1,528.2,207.1z M224.4,0c-70.7,0-128,57.3-128,128
	s57.3,128,128,128s128-57.3,128-128S295.1,0,224.4,0z M224.4,224c-52.9,0-96-43.1-96-96c0-52.9,43.1-96,96-96c52.9,0,96,43.1,96,96
	C320.4,180.9,277.3,224,224.4,224z M416.4,464c0,8.8-7.2,16-16,16h-28.2v1.4c-2,12.6-6.7,22.8-13.9,30.6h42.1c26.5,0,48-21.5,48-48
	v-36.7l-32,10.3V464L416.4,464z M181.7,480H48.4c-8.8,0-16-7.2-16-16v-41.6c0-56.5,45.9-102.4,102.4-102.4c19.6,0,39.1,16,89.6,16
	c3.8,0,7.5-0.1,11-0.3l38.9-39.2c-12.5,3.8-27.4,7.4-49.9,7.4c-47.1,0-60.8-16-89.6-16C60.6,288,0.4,348.2,0.4,422.4V464
	c0,26.5,21.5,48,48,48h144c-7.3-8.8-10.7-20.2-10.7-29.1V480z"/>
</svg>
